<?xml version="1.0" encoding="utf-8"?>
<!-- Generator: Adobe Illustrator 26.3.1, SVG Export Plug-In . SVG Version: 6.00 Build 0)  -->
<svg version="1.1" id="레이어_1" xmlns="http://www.w3.org/2000/svg" xmlns:xlink="http://www.w3.org/1999/xlink" x="0px"
	 y="0px" viewBox="0 0 390 542" style="enable-background:new 0 0 390 542;" xml:space="preserve">
<style type="text/css">
	.st0{fill:#808080;}
	.st1{fill:#FFFFFF;}
</style>
<g>
	<g>
		<polygon class="st0" points="390,271 390,225.17 0,0 0,45.83 		"/>
		<path class="st1" d="M381.87,244.25l-11.59-6.69l0.75-1.3l11.59,6.69L381.87,244.25z M361.59,232.55l-11.57-6.68l0.75-1.3
			l11.57,6.68L361.59,232.55z M341.35,220.86l-11.57-6.68l0.75-1.3l11.57,6.68L341.35,220.86z M321.11,209.18l-11.56-6.67l0.75-1.3
			l11.56,6.67L321.11,209.18z M300.88,197.5l-11.56-6.67l0.75-1.3l11.56,6.67L300.88,197.5z M280.66,185.82l-11.56-6.67l0.75-1.3
			l11.56,6.67L280.66,185.82z M260.43,174.14l-11.56-6.67l0.75-1.3l11.56,6.67L260.43,174.14z M240.21,162.47l-11.56-6.67l0.75-1.3
			l11.56,6.67L240.21,162.47z M219.99,150.79l-11.56-6.67l0.75-1.3l11.56,6.67L219.99,150.79z M199.77,139.12l-11.56-6.67l0.75-1.3
			l11.56,6.67L199.77,139.12z M179.54,127.44l-11.56-6.67l0.75-1.3l11.55,6.67L179.54,127.44z M159.32,115.77l-11.55-6.67l0.75-1.3
			l11.55,6.67L159.32,115.77z M139.1,104.1l-11.55-6.67l0.75-1.3l11.55,6.67L139.1,104.1z M118.89,92.42l-11.55-6.67l0.75-1.3
			l11.55,6.67L118.89,92.42z M98.67,80.75l-11.55-6.67l0.75-1.3l11.55,6.67L98.67,80.75z M78.45,69.07l-11.59-6.69l0.75-1.3
			l11.59,6.69L78.45,69.07z M58.18,57.37L46.62,50.7l0.75-1.3l11.56,6.68L58.18,57.37z M37.95,45.69l-11.54-6.66l0.75-1.3
			l11.54,6.66L37.95,45.69z M17.76,34.04L6.24,27.39l0.75-1.3l11.52,6.65L17.76,34.04z"/>
	</g>
	<g>
		<polygon class="st0" points="390,271 390,316.83 0,542 0,496.17 		"/>
		<path class="st1" d="M382.62,299.04l-11.59,6.69l-0.75-1.3l11.59-6.69L382.62,299.04z M362.34,310.75l-11.57,6.68l-0.75-1.3
			l11.57-6.68L362.34,310.75z M342.1,322.44l-11.57,6.68l-0.75-1.3l11.57-6.68L342.1,322.44z M321.86,334.12l-11.56,6.67l-0.75-1.3
			l11.56-6.67L321.86,334.12z M301.63,345.8l-11.56,6.67l-0.75-1.3l11.56-6.67L301.63,345.8z M281.41,357.48l-11.56,6.67l-0.75-1.3
			l11.56-6.67L281.41,357.48z M261.18,369.16l-11.56,6.67l-0.75-1.3l11.56-6.67L261.18,369.16z M240.96,380.83l-11.56,6.67
			l-0.75-1.3l11.56-6.67L240.96,380.83z M220.74,392.51l-11.56,6.67l-0.75-1.3l11.56-6.67L220.74,392.51z M200.52,404.18
			l-11.56,6.67l-0.75-1.3l11.56-6.67L200.52,404.18z M180.29,415.86l-11.55,6.67l-0.75-1.3l11.56-6.67L180.29,415.86z
			 M160.07,427.53l-11.55,6.67l-0.75-1.3l11.55-6.67L160.07,427.53z M139.85,439.2l-11.55,6.67l-0.75-1.3l11.55-6.67L139.85,439.2z
			 M119.64,450.88l-11.55,6.67l-0.75-1.3l11.55-6.67L119.64,450.88z M99.42,462.55l-11.55,6.67l-0.75-1.3l11.55-6.67L99.42,462.55z
			 M79.2,474.22l-11.59,6.69l-0.75-1.3l11.59-6.69L79.2,474.22z M58.93,485.93l-11.56,6.68l-0.75-1.3l11.56-6.68L58.93,485.93z
			 M38.7,497.61l-11.54,6.66l-0.75-1.3l11.54-6.66L38.7,497.61z M18.51,509.26l-11.52,6.65l-0.75-1.3l11.52-6.65L18.51,509.26z"/>
	</g>
</g>
</svg>
