<svg width="394" height="394" viewBox="0 0 394 394" fill="none" xmlns="http://www.w3.org/2000/svg">
  <circle cx="197" cy="197" r="197" fill="#DFE6E9" />
  <path d="M291 302.75V279.25C291 266.785 286.048 254.83 277.234 246.016C268.42 237.202 256.465 232.25 244 232.25H150C137.535 232.25 125.58 237.202 116.766 246.016C107.952 254.83 103 266.785 103 279.25V302.75" stroke="white" stroke-width="2" stroke-linecap="round" stroke-linejoin="round" />
  <path d="M197 185.25C222.957 185.25 244 164.207 244 138.25C244 112.293 222.957 91.25 197 91.25C171.043 91.25 150 112.293 150 138.25C150 164.207 171.043 185.25 197 185.25Z" stroke="white" stroke-width="2" stroke-linecap="round" stroke-linejoin="round" />
</svg>