<svg width="183" height="234" viewBox="0 0 183 234" fill="none" xmlns="http://www.w3.org/2000/svg">
<path d="M116.487 7.93723L109.063 0.512705C108.379 -0.170902 107.271 -0.170902 106.587 0.512705L104.112 2.98791C103.429 3.67152 103.429 4.77951 104.112 5.46311L95.7263 13.8491C90.6316 11.6943 84.5261 12.6754 80.3731 16.8274L63.05 34.1506C60.3167 36.8839 60.3167 41.3169 63.05 44.0503L72.9497 53.95C75.683 56.6833 80.1161 56.6833 82.8494 53.95L100.174 36.6258C104.326 32.4738 105.307 26.3673 103.152 21.2725L111.538 12.8865C112.221 13.5701 113.329 13.5701 114.013 12.8865L116.488 10.4113C117.171 9.72882 117.171 8.62083 116.487 7.93723V7.93723ZM80.6017 46.298L70.702 36.3983L84.0504 23.0499L93.9501 32.9496L80.6017 46.298V46.298Z" fill="#00B894"/>
<path d="M181 15.2143V17.25C181 17.52 180.893 17.7789 180.702 17.9698C180.512 18.1606 180.253 18.2679 179.983 18.2679H176.933V19.7947C176.933 20.6378 176.251 21.3215 175.408 21.3215H125.592C124.749 21.3215 124.067 20.6378 124.067 19.7947V18.2679H121.017C120.747 18.2679 120.488 18.1606 120.298 17.9698C120.107 17.7789 120 17.52 120 17.25V15.2143C120 15.0129 120.06 14.8161 120.171 14.6487C120.283 14.4813 120.442 14.3508 120.628 14.2738L150.111 3.07739C150.36 2.9742 150.64 2.9742 150.889 3.07739L180.372 14.2738C180.558 14.3508 180.717 14.4813 180.829 14.6487C180.94 14.8161 181 15.0129 181 15.2143V15.2143ZM177.95 53.8929H123.05C121.366 53.8929 120 55.26 120 56.9464V58.9821C120 59.2521 120.107 59.511 120.298 59.7019C120.488 59.8928 120.747 60 121.017 60H179.983C180.253 60 180.512 59.8928 180.702 59.7019C180.893 59.511 181 59.2521 181 58.9821V56.9464C181 55.26 179.634 53.8929 177.95 53.8929ZM130.167 23.3572V47.7857H125.592C124.749 47.7857 124.067 48.4693 124.067 49.3125V51.8571H176.933V49.3125C176.933 48.4693 176.251 47.7857 175.408 47.7857H170.833V23.3572H162.7V47.7857H154.567V23.3572H146.433V47.7857H138.3V23.3572H130.167Z" fill="#6C5CE7"/>
<path d="M5.6297 6.4872C11.8374 1.171 21.0696 2.12723 26.7676 8.03538L28.9992 10.3463L31.2308 8.03538C36.9174 2.12723 46.1609 1.171 52.3686 6.4872C59.4826 12.5889 59.8564 23.54 53.4901 30.154L31.5706 52.8986C30.1546 54.3671 27.855 54.3671 26.4391 52.8986L4.51956 30.154C-1.85805 23.54 -1.48423 12.5889 5.6297 6.4872Z" fill="#FD79A8"/>
<path d="M26.352 78.144V80.896C26.352 91.712 21.744 99.52 8.24 104.832L12.208 110.912C28.464 104.192 34.608 93.504 34.608 78.144H26.352ZM11.312 78.144V84.928H28.976V78.144H11.312ZM26.736 88.96L8.88 89.856L9.904 96.576L26.736 94.72V88.96ZM50.992 74.432V109.12H59.056V74.432H50.992ZM43.888 88.192V95.104H53.296V88.192H43.888ZM38.064 75.52V108.672H46V75.52H38.064ZM18.928 111.424V133.056H59.056V111.424H18.928ZM50.736 118.08V126.336H27.312V118.08H50.736ZM68.779 79.616V86.4H101.547V79.616H68.779ZM68.011 120.32C78.123 120.32 91.627 120.064 103.531 117.952L102.955 111.808C91.307 113.216 77.419 113.344 67.179 113.344L68.011 120.32ZM73.707 85.184V115.072H81.963V85.184H73.707ZM87.723 85.184V115.072H95.979V85.184H87.723ZM108.715 74.432V133.696H117.163V74.432H108.715ZM99.883 95.936V102.784H114.987V95.936H99.883ZM148.326 77.824V82.112C148.326 90.624 140.966 100.032 127.59 102.336L131.238 109.376C146.598 106.368 155.75 94.976 155.75 82.112V77.824H148.326ZM150.054 77.824V82.112C150.054 95.168 159.142 106.368 174.502 109.376L178.15 102.336C164.71 100.032 157.414 90.816 157.414 82.112V77.824H150.054ZM126.374 119.552V126.464H180.006V119.552H126.374Z" fill="black"/>
<path d="M51.376 161.432V220.696H59.504V161.432H51.376ZM28.848 183.064V189.912H42.608V183.064H28.848ZM39.152 162.456V218.072H47.088V162.456H39.152ZM10.288 200.536V207.576H14.384C23.024 207.576 28.912 207.32 35.504 205.976L34.864 199.064C28.336 200.344 22.768 200.536 14.384 200.536H10.288ZM10.288 168.088V203.48H18.672V174.872H32.88V168.088H10.288ZM108.075 161.368V220.824H116.651V161.368H108.075ZM84.715 165.528C75.755 165.528 69.163 173.72 69.163 186.648C69.163 199.704 75.755 207.896 84.715 207.896C93.675 207.896 100.267 199.704 100.267 186.648C100.267 173.72 93.675 165.528 84.715 165.528ZM84.715 173.272C89.131 173.272 92.075 177.944 92.075 186.648C92.075 195.48 89.131 200.216 84.715 200.216C80.299 200.216 77.291 195.48 77.291 186.648C77.291 177.944 80.299 173.272 84.715 173.272ZM132.646 191.96V198.616H174.31V191.96H132.646ZM126.374 207V213.912H180.006V207H126.374ZM132.646 165.72V193.816H141.286V172.568H173.798V165.72H132.646ZM138.662 178.776V185.368H172.454V178.776H138.662Z" fill="black"/>
</svg>
