<svg width="252" height="168" viewBox="0 0 252 168" fill="none" xmlns="http://www.w3.org/2000/svg">
<path d="M18.7031 27.4844L17.625 31.1875H34.6875L30.0469 46.9375H43.5469L52.7812 15.4844V15.3906V13.75V11.6875H18.7031L17.625 15.3906H39.3281L35.7656 27.4844H18.7031ZM73.1719 25.2344L68.5312 28.8438V11.6875H55.5937V46.9375H68.5312V33.5312L73.1719 29.9219V47.0312H86.1094V11.6875H73.1719V25.2344ZM45.375 48.7188H32.6719H31.875L23.25 78.2031V78.2969V79.9375V82H81.0469L82.125 78.2969V48.7188H69.1875H45.375ZM36.7031 78.2969L44.2969 52.4219H69.1875V78.2969H36.7031Z" fill="#FD79A8"/>
<path d="M143.203 39.7188L129.703 50.3125V15.3906H135.375L136.453 11.6875H129.703H116.812H115.031H101.531H91.0781V15.3906H101.156L95.1094 77.5938V77.8281H89.0625V81.5312H116.812H129.703H135.375L136.453 77.8281H129.703V54.9531L143.203 44.3594V82H156.141V11.875H143.203V39.7188ZM107.859 77.8281L114.609 15.3906H116.812V77.8281H107.859ZM178.594 19.5625L220.641 55H226.406L178.594 14.7344V11.6875H165.656V55H178.594V19.5625ZM160.875 82H231.656V78.2969H161.953L160.875 82Z" fill="black"/>
<path d="M34.1719 99.4375H54.2344L55.3594 95.7344H34.5938H21.4219H21.0469L14.5312 162.203V162.297V163.984V166H54.2344L55.3594 162.297H27.375L34.1719 99.4375ZM56.9062 127L45.7969 135.672L43.8281 141.859L56.9062 131.641V165.953H69.8906V95.6875H56.9062V127ZM70.9219 95.6875V165.953H83.9062V95.6875H70.9219Z" fill="#FD79A8"/>
<path d="M146.109 165.531H159V95.6875H146.109V165.531ZM114.188 96.1562C107.156 96.1562 101.156 98.6406 96.1406 103.609C91.1719 108.578 88.6875 114.578 88.6875 121.609V140.547C88.6875 147.578 91.1719 153.578 96.1406 158.547C101.156 163.516 107.156 166 114.188 166C121.266 166 127.266 163.516 132.234 158.547C137.203 153.578 139.688 147.578 139.688 140.547V121.609C139.688 114.578 137.203 108.578 132.234 103.609C127.266 98.6406 121.266 96.1562 114.188 96.1562ZM126.891 149.781C126.891 153.25 125.625 156.25 123.188 158.688C120.703 161.172 117.703 162.391 114.234 162.391C110.719 162.391 107.766 161.172 105.281 158.688C102.797 156.25 101.578 153.25 101.578 149.781V112.281C101.578 108.812 102.797 105.859 105.281 103.375C107.766 100.891 110.719 99.6719 114.234 99.6719C117.703 99.6719 120.703 100.891 123.188 103.375C125.625 105.859 126.891 108.812 126.891 112.281V149.781ZM231.469 127.141H178.125L182.109 113.688H230.391L231.469 109.984H183.188L186.328 99.3906H230.391L231.469 95.6875H187.406H187.453H173.906L164.625 127.047V127.141V128.781V130.844H230.391L231.469 127.141ZM164.109 162.297L163.031 166H233.344V162.297H164.109Z" fill="black"/>
</svg>
