<svg width="146" height="24" viewBox="0 0 146 24" fill="none" xmlns="http://www.w3.org/2000/svg">
<path d="M0.359375 5.82812L0 7.0625H5.6875L4.14062 12.3125H8.64062L11.7188 1.82812V1.79688V1.25V0.5625H0.359375L0 1.79688H7.23438L6.04688 5.82812H0.359375ZM18.5156 5.07812L16.9688 6.28125V0.5625H12.6562V12.3125H16.9688V7.84375L18.5156 6.64062V12.3438H22.8281V0.5625H18.5156V5.07812ZM9.25 12.9062H5.01562H4.75L1.875 22.7344V22.7656V23.3125V24H21.1406L21.5 22.7656V12.9062H17.1875H9.25ZM6.35938 22.7656L8.89062 14.1406H17.1875V22.7656H6.35938ZM78.7969 1.8125H85.4844L85.8594 0.578125H78.9375H74.5469H74.4219L72.25 22.7344V22.7656V23.3281V24H85.4844L85.8594 22.7656H76.5312L78.7969 1.8125ZM86.375 11L82.6719 13.8906L82.0156 15.9531L86.375 12.5469V23.9844H90.7031V0.5625H86.375V11ZM91.0469 0.5625V23.9844H95.375V0.5625H91.0469Z" fill="#FD79A8"/>
<path d="M41.8594 9.90625L37.3594 13.4375V1.79688H39.25L39.6094 0.5625H37.3594H33.0625H32.4688H27.9688H24.4844V1.79688H27.8438L25.8281 22.5312V22.6094H23.8125V23.8438H33.0625H37.3594H39.25L39.6094 22.6094H37.3594V14.9844L41.8594 11.4531V24H46.1719V0.625H41.8594V9.90625ZM30.0781 22.6094L32.3281 1.79688H33.0625V22.6094H30.0781ZM53.6562 3.1875L67.6719 15H69.5938L53.6562 1.57812V0.5625H49.3438V15H53.6562V3.1875ZM47.75 24H71.3438V22.7656H48.1094L47.75 24ZM116.109 23.8438H120.406V0.5625H116.109V23.8438ZM105.469 0.71875C103.125 0.71875 101.125 1.54688 99.4531 3.20312C97.7969 4.85938 96.9688 6.85938 96.9688 9.20312V15.5156C96.9688 17.8594 97.7969 19.8594 99.4531 21.5156C101.125 23.1719 103.125 24 105.469 24C107.828 24 109.828 23.1719 111.484 21.5156C113.141 19.8594 113.969 17.8594 113.969 15.5156V9.20312C113.969 6.85938 113.141 4.85938 111.484 3.20312C109.828 1.54688 107.828 0.71875 105.469 0.71875ZM109.703 18.5938C109.703 19.75 109.281 20.75 108.469 21.5625C107.641 22.3906 106.641 22.7969 105.484 22.7969C104.312 22.7969 103.328 22.3906 102.5 21.5625C101.672 20.75 101.266 19.75 101.266 18.5938V6.09375C101.266 4.9375 101.672 3.95312 102.5 3.125C103.328 2.29688 104.312 1.89062 105.484 1.89062C106.641 1.89062 107.641 2.29688 108.469 3.125C109.281 3.95312 109.703 4.9375 109.703 6.09375V18.5938ZM144.562 11.0469H126.781L128.109 6.5625H144.203L144.562 5.32812H128.469L129.516 1.79688H144.203L144.562 0.5625H129.875H129.891H125.375L122.281 11.0156V11.0469V11.5938V12.2812H144.203L144.562 11.0469ZM122.109 22.7656L121.75 24H145.188V22.7656H122.109Z" fill="black"/>
</svg>
